<?xml version="1.0" encoding="UTF-8"?>
<svg width="79px" height="79px" viewBox="0 0 79 79" version="1.1" xmlns="http://www.w3.org/2000/svg" xmlns:xlink="http://www.w3.org/1999/xlink">
    <!-- Generator: Sketch 42 (36781) - http://www.bohemiancoding.com/sketch -->
    <title>arr-circle-left</title>
    <desc>Created with Sketch.</desc>
    <defs></defs>
    <g id="Page-1" stroke="none" stroke-width="1" fill="none" fill-rule="evenodd">
        <g id="Web-1-(EN)" transform="translate(-48.000000, -1870.000000)">
            <g id="Prototype" transform="translate(48.000000, 1467.000000)">
                <g id="arr-circle-left" transform="translate(0.000000, 403.000000)">
                    <circle id="Circle" stroke="#FFFFFF" cx="39.5" cy="39.5" r="39"></circle>
                    <path d="M24.018,40.021 L55.986,40.021 C56.2621424,40.021 56.486,39.7971424 56.486,39.521 C56.486,39.2448576 56.2621424,39.021 55.986,39.021 L24.018,39.021 C23.7418576,39.021 23.518,39.2448576 23.518,39.521 C23.518,39.7971424 23.7418576,40.021 24.018,40.021 Z M36.687,52.5 C36.8205451,52.5000503 36.9487606,52.4476149 37.044,52.354 C37.1373127,52.2614334 37.1897983,52.1354375 37.1897983,52.004 C37.1897983,51.8725625 37.1373127,51.7465666 37.044,51.654 L24.732,39.522 L37.044,27.394 C37.1386097,27.3011101 37.1919079,27.1740878 37.1919079,27.0415 C37.1919079,26.9089122 37.1386097,26.7818899 37.044,26.689 C36.8454729,26.4951491 36.5285271,26.4951491 36.33,26.689 L23.661,39.169 C23.5663903,39.2618899 23.5130921,39.3889122 23.5130921,39.5215 C23.5130921,39.6540878 23.5663903,39.7811101 23.661,39.874 L36.33,52.357 C36.4251766,52.450355 36.5536944,52.5018342 36.687,52.5 L36.687,52.5 Z" id="Arr" fill="#FFFFFF"></path>
                </g>
            </g>
        </g>
    </g>
</svg>