<?xml version="1.0" encoding="UTF-8"?>
<svg width="26px" height="18px" viewBox="0 0 26 18" version="1.1" xmlns="http://www.w3.org/2000/svg" xmlns:xlink="http://www.w3.org/1999/xlink">
  <g id="Page-1" stroke="none" stroke-width="1" fill="none" fill-rule="evenodd">
    <g id="Web-1-(EN)" transform="translate(-1121.000000, -3672.000000)" fill="#FFFFFF">
      <g id="Footer" transform="translate(145.000000, 3670.000000)">
        <g id="Email" transform="translate(976.000000, 0.000000)">
          <path d="M23.3690476,2 L2.32142857,2 C1.0412381,2 0,3.044 0,4.32758621 L0,17.6724138 C0,18.956 1.0412381,20 2.32142857,20 L23.3690476,20 C24.6492381,20 25.6904762,18.956 25.6904762,17.6724138 L25.6904762,4.32758621 C25.6904762,3.044 24.6492381,2 23.3690476,2 Z M24.7619048,4.32758621 L24.7619048,17.6724138 C24.7619048,17.903 24.700619,18.1177586 24.6012619,18.3095517 L16.7904286,11 L24.6012619,3.69044828 C24.700619,3.88224138 24.7619048,4.097 24.7619048,4.32758621 Z M23.3690476,2.93103448 C23.5674524,2.93103448 23.7550238,2.97417241 23.925881,3.04927586 L13.8861667,12.4440345 C13.3219048,12.971931 12.3685714,12.9722414 11.804,12.4440345 L1.76428571,3.04927586 C1.93514286,2.97417241 2.12302381,2.93103448 2.32142857,2.93103448 L23.3690476,2.93103448 Z M1.08890476,18.3092414 C0.989857143,18.1174483 0.928571429,17.903 0.928571429,17.6724138 L0.928571429,4.32758621 C0.928571429,4.097 0.989857143,3.88255172 1.08890476,3.69075862 L8.90004762,11 L1.08890476,18.3092414 Z M2.32142857,19.0689655 C2.12302381,19.0689655 1.93514286,19.0258276 1.76428571,18.9507241 L9.58038095,11.6368276 L11.1704048,13.124931 C11.6319048,13.5572414 12.2382619,13.772931 12.8449286,13.772931 C13.4515952,13.772931 14.0579524,13.556931 14.5197619,13.124931 L16.1097857,11.6368276 L23.925881,18.9507241 C23.7550238,19.0258276 23.5674524,19.0689655 23.3690476,19.0689655 L2.32142857,19.0689655 Z" id="Shape"></path>
        </g>
      </g>
    </g>
  </g>
</svg>
