<?xml version="1.0" encoding="UTF-8"?>
<svg width="63px" height="63px" viewBox="0 0 63 63" version="1.1" xmlns="http://www.w3.org/2000/svg" xmlns:xlink="http://www.w3.org/1999/xlink">
  <g id="Page-1" stroke="none" stroke-width="1" fill="none" fill-rule="evenodd">
    <g id="Web-1-(EN)" transform="translate(-303.000000, -1058.000000)" fill="#F9A076">
      <g id="Why-TradeInt" transform="translate(185.000000, 912.000000)">
        <g id="Why" transform="translate(0.000000, 146.000000)">
          <path d="M149.5,0 C132.10303,0 118,14.1030304 118,31.5 C118,48.8969696 132.10303,63 149.5,63 C166.89697,63 181,48.8969696 181,31.5 C180.980557,14.1110903 166.88891,0.019442933 149.5,0 Z M149.5,60.57639 C137.739386,60.57639 127.136809,53.4919333 122.636276,42.6265183 C118.135743,31.7611033 120.623565,19.2545091 128.939665,10.9385892 C137.255765,2.62266934 149.762413,0.135118441 160.62773,4.63588718 C171.493048,9.13665591 178.577275,19.7393859 178.57702,31.5 C178.557925,47.5506748 165.550676,60.557361 149.5,60.57576 L149.5,60.57639 Z M164.15695,20.09385 L145.78993,41.38785 L134.72524,32.26608 C134.479878,32.0623736 134.162122,31.9674049 133.84522,32.0030654 C133.528317,32.0387258 133.239614,32.2019382 133.04566,32.45508 C132.635538,32.9898424 132.718813,33.7526459 133.23466,34.18632 L145.18576,44.03889 C145.679298,44.4469669 146.409151,44.3826837 146.82376,43.89462 L165.943,21.7287 C166.381379,21.216622 166.337451,20.4498245 165.84346,19.99116 C165.609283,19.774572 165.296823,19.662995 164.978424,19.6822631 C164.660025,19.7015311 164.3633,19.8499733 164.15695,20.09322 L164.15695,20.09385 Z" id="Icon"></path>
        </g>
      </g>
    </g>
  </g>
</svg>
